HIERARCHY
ROOT Hips
{
	OFFSET 0.000000 0.000000 0.000000
	CHANNELS 6 Xposition Yposition Zposition Xrotation Yrotation Zrotation
	JOINT Chest
	{
		OFFSET 0.000000 0.009282 11.569106
		CHANNELS 3 Xrotation Yrotation Zrotation
		JOINT Chest2
		{
			OFFSET 0.000000 -0.016863 9.269641
			CHANNELS 3 Xrotation Yrotation Zrotation
			JOINT Chest3
			{
				OFFSET 0.000000 0.000000 8.374491
				CHANNELS 3 Xrotation Yrotation Zrotation
				JOINT Chest4
				{
					OFFSET 0.000000 0.000000 8.374493
					CHANNELS 3 Xrotation Yrotation Zrotation
					JOINT Neck
					{
						OFFSET 0.000000 -0.000001 12.152554
						CHANNELS 3 Xrotation Yrotation Zrotation
						JOINT Head
						{
							OFFSET 0.000000 -0.040100 7.802319
							CHANNELS 3 Xrotation Yrotation Zrotation
							End Site
							{
								OFFSET 0.000000 -0.020946 14.853096
							}
						}
					}
					JOINT RightCollar
					{
						OFFSET -2.894404 0.000000 6.791374
						CHANNELS 3 Xrotation Yrotation Zrotation
						JOINT RightShoulder
						{
							OFFSET -13.574684 0.000000 0.000000
							CHANNELS 3 Xrotation Yrotation Zrotation
							JOINT RightElbow
							{
								OFFSET -23.923903 0.000000 0.000000
								CHANNELS 3 Xrotation Yrotation Zrotation
								JOINT RightWrist
								{
									OFFSET -19.846718 -0.012765 0.000000
									CHANNELS 3 Xrotation Yrotation Zrotation
									End Site
									{
										OFFSET -14.973145 0.000000 0.000000
									}
								}
							}
						}
					}
					JOINT LeftCollar
					{
						OFFSET 2.894404 0.000000 6.791374
						CHANNELS 3 Xrotation Yrotation Zrotation
						JOINT LeftShoulder
						{
							OFFSET 13.574684 0.000000 0.000000
							CHANNELS 3 Xrotation Yrotation Zrotation
							JOINT LeftElbow
							{
								OFFSET 23.923903 0.000000 0.000000
								CHANNELS 3 Xrotation Yrotation Zrotation
								JOINT LeftWrist
								{
									OFFSET 19.846718 -0.012765 0.000000
									CHANNELS 3 Xrotation Yrotation Zrotation
									End Site
									{
										OFFSET 14.973145 0.000000 0.000000
									}
								}
							}
						}
					}
				}
			}
		}
	}
	JOINT RightHip
	{
		OFFSET -9.469263 -0.004642 0.045487
		CHANNELS 3 Xrotation Yrotation Zrotation
		JOINT RightKnee
		{
			OFFSET 0.000000 -0.002666 -40.478676
			CHANNELS 3 Xrotation Yrotation Zrotation
			JOINT RightAnkle
			{
				OFFSET 0.000000 -0.049110 -35.224068
				CHANNELS 3 Xrotation Yrotation Zrotation
				JOINT RightToe
				{
					OFFSET 0.000000 -12.539530 -6.151390
					CHANNELS 3 Xrotation Yrotation Zrotation
					End Site
					{
						OFFSET 0.000000 -5.044995 -1.291870
					}
				}
			}
		}
	}
	JOINT LeftHip
	{
		OFFSET 9.469263 -0.004642 0.045487
		CHANNELS 3 Xrotation Yrotation Zrotation
		JOINT LeftKnee
		{
			OFFSET 0.000000 -0.002666 -40.478676
			CHANNELS 3 Xrotation Yrotation Zrotation
			JOINT LeftAnkle
			{
				OFFSET 0.000000 -0.049110 -35.224068
				CHANNELS 3 Xrotation Yrotation Zrotation
				JOINT LeftToe
				{
					OFFSET 0.000000 -12.539530 -6.151390
					CHANNELS 3 Xrotation Yrotation Zrotation
					End Site
					{
						OFFSET 0.000000 -5.044995 -1.291870
					}
				}
			}
		}
	}
}
MOTION
Frames: 13
Frame Time: 0.016667
-8.794899 -18.183023 82.593765 0.647849 12.890841 -101.842902 7.372601 1.863983 12.814982 3.335122 0.638823 5.686033 3.335121 0.638823 5.686033 2.507517 0.448148 4.268115 21.189875 -10.585426 -10.902856 1.963580 -16.131280 -23.270791 -2.105090 -8.943522 -13.950550 -38.446319 -66.497916 -0.352866 18.978188 -38.461089 71.891976 2.136477 -10.654077 -6.247577 1.229899 8.145665 -20.052831 -67.637956 37.041922 11.028327 -20.761344 29.510785 -61.574579 -28.883463 -51.635861 -26.538596 -12.209820 16.490899 -12.521222 5.862629 -0.477861 -18.907179 43.807631 -33.604616 29.328665 2.151292 0.686086 -0.912455 12.574828 5.718315 -1.123688 4.532072 1.548202 3.527193 -4.717216 -1.115115 1.369194 0.111925 0.221027 0.021384 
-8.726461 -18.131676 82.613052 0.945204 12.730028 -102.681717 7.323640 1.710515 12.716707 3.317615 0.604450 5.621597 3.317615 0.604450 5.621597 2.493999 0.422877 4.219587 21.182240 -10.513913 -11.007281 1.964959 -15.970411 -23.436280 -2.050515 -8.988106 -13.979131 -40.655656 -66.204812 -2.542796 18.002000 -39.308073 71.937765 1.620183 -10.921486 -5.920621 1.300372 8.122402 -20.030786 -67.405812 37.997544 10.586546 -18.820434 29.143376 -63.757808 -30.429388 -52.238824 -29.833781 -12.642662 16.224158 -11.798902 6.882170 -0.970649 -18.430135 41.451957 -33.290294 28.006243 2.109209 -0.166137 -0.945074 12.476155 5.549176 -0.700060 4.496665 1.543667 3.883981 -4.823051 -1.078360 1.408334 0.165261 0.193656 0.015998 
-8.674603 -18.065344 82.633820 1.249143 12.559564 -103.535231 7.286813 1.555171 12.600533 3.307603 0.567044 5.555054 3.307605 0.567044 5.555055 2.486081 0.395270 4.169466 21.148719 -10.431466 -11.099990 1.920771 -15.788874 -23.579760 -2.064992 -9.033420 -13.986083 -42.691937 -65.907924 -4.574693 16.850763 -40.378876 71.721030 0.951408 -11.299781 -5.637046 1.421972 8.075439 -20.043115 -67.174931 38.924504 10.113690 -16.975843 28.528290 -65.698661 -32.220082 -52.794859 -33.603438 -13.100720 15.870156 -10.931325 8.125483 -1.534495 -17.962108 38.312112 -32.363171 25.603012 2.007147 -1.281238 -0.900745 12.391506 5.369461 -0.291035 4.460301 1.528905 4.186555 -4.924557 -1.045687 1.528647 0.198803 0.183429 0.010544 
-8.633258 -17.985344 82.655205 1.510721 12.387498 -104.370420 7.271919 1.441630 12.454586 3.303059 0.534296 5.484910 3.303059 0.534296 5.484909 2.482308 0.371125 4.116681 21.087007 -10.355212 -11.187109 1.822835 -15.615380 -23.718841 -2.117748 -9.072727 -14.064330 -44.552115 -65.712116 -6.405751 15.534804 -41.696816 71.231196 0.178347 -11.728548 -5.457342 1.604078 8.010363 -20.155287 -66.882565 39.779913 9.620380 -15.251894 27.696593 -67.481962 -34.360131 -53.404419 -37.810227 -13.574334 15.520143 -10.012068 9.529182 -2.137272 -17.623830 34.907717 -30.684919 22.877637 1.846760 -2.551350 -0.769854 12.303386 5.211262 0.098684 4.443438 1.512875 4.500255 -5.027064 -0.974771 1.635595 0.213319 0.158650 0.009348 
-8.605140 -17.889927 82.678711 1.706889 12.232724 -105.151671 7.289298 1.393738 12.265103 3.302064 0.508997 5.413543 3.302066 0.508998 5.413543 2.481273 0.352541 4.063021 20.995575 -10.308274 -11.277441 1.662969 -15.488765 -23.878121 -2.157684 -9.126658 -14.183388 -46.247050 -65.576667 -8.026704 14.023440 -43.076589 70.529906 -0.688995 -12.184077 -5.319646 1.755178 7.946281 -20.332059 -66.436068 40.625135 9.082748 -13.731641 26.767682 -69.081763 -36.309521 -54.015540 -42.055906 -13.975755 15.224080 -9.146448 10.921770 -2.753164 -17.406017 31.536425 -28.326920 19.977277 1.652039 -3.898025 -0.528572 12.236711 5.099334 0.444412 4.413340 1.479881 4.863103 -5.083199 -0.836174 1.671198 0.183402 0.108608 0.013687 
-8.588235 -17.782627 82.704292 1.872704 12.066514 -105.910218 7.302081 1.358183 12.033497 3.297038 0.481932 5.326620 3.297039 0.481932 5.326621 2.477187 0.332752 3.997680 20.906101 -10.264274 -11.354822 1.506322 -15.371394 -24.014440 -2.150035 -9.186675 -14.192745 -47.888601 -65.397955 -9.615890 12.387751 -44.340106 69.714962 -1.629513 -12.801187 -5.162067 1.884661 7.890466 -20.376384 -65.878923 41.631287 8.453393 -12.494316 25.775213 -70.362703 -37.653805 -54.492356 -45.991410 -14.224257 14.884162 -8.434875 12.082151 -3.281833 -17.072070 28.545077 -25.634272 17.254434 1.396879 -5.115384 -0.267813 12.184497 4.994355 0.797645 4.346414 1.452109 5.145409 -5.122827 -0.679573 1.748881 0.147395 0.054615 0.014403 
-8.591359 -17.680531 82.732933 2.023585 11.894219 -106.635639 7.300210 1.345800 11.785273 3.283343 0.456136 5.235898 3.283342 0.456136 5.235896 2.466617 0.314009 3.929485 20.830166 -10.238010 -11.430338 1.371059 -15.288805 -24.151998 -2.128302 -9.291785 -14.169924 -49.470486 -65.190727 -11.213758 10.685079 -45.399017 68.823800 -2.599023 -13.539054 -4.894128 2.053152 7.802999 -20.384401 -65.262567 42.783991 7.684733 -11.470765 24.662799 -71.308978 -38.771234 -54.792706 -49.782770 -14.196323 14.439846 -8.041481 12.805625 -3.612798 -16.522424 26.106001 -23.001502 14.715147 1.119032 -5.989893 -0.028055 12.151541 4.876578 1.162774 4.253193 1.479268 5.336326 -5.138341 -0.594399 1.864035 0.092419 0.033751 0.005853 
-8.615971 -17.590528 82.763969 2.181000 11.674666 -107.352194 7.266109 1.328793 11.541975 3.257796 0.426880 5.142177 3.257797 0.426880 5.142176 2.447133 0.292783 3.859021 20.766888 -10.218809 -11.501048 1.257842 -15.222431 -24.281731 -2.062420 -9.409062 -14.166499 -51.083432 -64.962496 -12.816960 8.917072 -46.354356 67.746734 -3.661949 -14.370761 -4.629311 2.200459 7.753552 -20.391820 -64.433286 43.957643 6.751627 -10.610614 23.417181 -71.978904 -39.938377 -55.010456 -53.653246 -13.945399 13.881943 -7.991636 13.083869 -3.784365 -15.877306 24.241199 -20.616229 12.386878 0.862549 -6.421112 0.147094 12.097312 4.737015 1.542578 4.156355 1.533866 5.510586 -5.175681 -0.567254 1.957346 0.048776 0.042024 -0.005763 
-8.656593 -17.510645 82.795998 2.365884 11.379945 -108.092559 7.185077 1.266347 11.319174 3.217192 0.393639 5.048721 3.217190 0.393640 5.048722 2.416332 0.268682 3.788722 20.718954 -10.187565 -11.569416 1.176189 -15.137578 -24.400774 -1.978425 -9.516738 -14.197502 -52.787117 -64.724717 -14.480278 6.981626 -47.366583 66.315550 -4.949280 -15.379467 -4.546997 2.407825 7.700321 -20.428058 -63.499715 45.090983 5.764075 -9.906839 22.112196 -72.388421 -41.134179 -55.203484 -57.676399 -13.585545 13.196594 -8.241491 13.110855 -3.787249 -15.299818 22.770317 -18.552954 10.507912 0.702140 -6.461145 0.225983 12.004782 4.557376 1.951225 4.033568 1.610557 5.676560 -5.207265 -0.607385 2.045349 0.009119 0.081333 -0.018818 
-8.705669 -17.447763 82.827309 2.530799 11.023265 -108.852035 7.058049 1.190867 11.104035 3.159256 0.360207 4.956190 3.159257 0.360207 4.956188 2.372540 0.244561 3.719109 20.689930 -10.134712 -11.630203 1.134884 -15.019185 -24.495635 -1.958701 -9.592816 -14.225413 -54.399807 -64.483556 -16.152209 4.719234 -48.530526 64.484417 -6.254654 -16.504783 -4.670805 2.692176 7.624828 -20.489546 -62.554848 46.170183 4.802376 -9.339924 20.818915 -72.528023 -42.001050 -55.248864 -61.455337 -13.127544 12.424339 -8.629475 12.863779 -3.680411 -15.013116 21.566099 -16.725745 9.248841 0.683935 -6.231795 0.246754 11.865710 4.392196 2.378742 3.891887 1.684626 5.789667 -5.217952 -0.689391 2.173245 -0.037644 0.134477 -0.028395 
-8.755018 -17.400570 82.854172 2.666446 10.636683 -109.645648 6.906835 1.119859 10.912977 3.093413 0.330486 4.872001 3.093413 0.330486 4.871999 2.322863 0.223227 3.655773 20.667818 -10.073524 -11.689757 1.108495 -14.887321 -24.584327 -1.930631 -9.662293 -14.252629 -55.952049 -64.280290 -17.773209 2.127064 -49.675471 62.327757 -7.482953 -17.640417 -4.842935 2.920294 7.544216 -20.494336 -61.529404 47.288255 3.887274 -8.793436 19.614341 -72.534874 -42.652940 -55.053025 -64.656012 -12.646324 11.614788 -8.905184 12.482592 -3.567454 -15.183470 20.393270 -15.025926 8.452954 0.832234 -5.887575 0.222426 11.703478 4.255080 2.829931 3.724962 1.764074 5.874629 -5.201687 -0.814688 2.300364 -0.087220 0.198750 -0.032996 
-8.795816 -17.363293 82.873138 2.777235 10.228912 -110.480700 6.740225 1.057722 10.739557 3.021975 0.304750 4.793460 3.021975 0.304748 4.793461 2.269032 0.204879 3.596699 20.656193 -10.002986 -11.735107 1.103797 -14.744565 -24.642424 -1.883611 -9.748723 -14.241510 -57.359751 -64.123926 -19.271334 -0.614384 -50.474610 60.107509 -8.685763 -18.796419 -4.896395 3.107821 7.485992 -20.457402 -60.442933 48.432957 3.020650 -8.188874 18.555508 -72.542783 -43.269255 -54.706209 -67.277596 -12.240373 10.776462 -8.960444 12.108822 -3.436464 -15.683836 19.171352 -13.410366 7.791719 1.061400 -5.564004 0.179486 11.521194 4.149366 3.275270 3.535786 1.836856 5.941742 -5.171796 -0.978346 2.504196 -0.126264 0.272451 -0.032162 
-8.821008 -17.341040 82.880997 2.868834 9.817460 -111.371173 6.563265 1.014193 10.591116 2.947321 0.286566 4.724529 2.947321 0.286566 4.724529 2.212859 0.192158 3.544869 20.642548 -9.928035 -11.769999 1.096267 -14.596575 -24.680136 -1.756382 -9.867270 -14.192424 -58.756689 -63.970718 -20.742018 -3.304040 -50.908593 57.980199 -10.026363 -20.022138 -4.859344 3.403075 7.426849 -20.499734 -59.413002 49.462567 2.147409 -7.561245 17.761328 -72.498230 -43.772941 -54.388465 -69.479389 -11.973519 9.918006 -8.767010 11.800742 -3.281048 -16.285942 18.003214 -11.858148 7.061007 1.240547 -5.308548 0.146841 11.324957 4.067663 3.701918 3.344832 1.915112 6.001510 -5.145383 -1.184704 2.737372 -0.147864 0.354787 -0.029913 
